<svg xmlns="http://www.w3.org/2000/svg" viewBox="0 0 221.22 58"><defs><style>.cls-1{fill:none;stroke:#94f7da;stroke-linecap:round;stroke-linejoin:round;stroke-width:11px;opacity:0.7;}</style></defs><title>tardy_logo_1</title><g id="Layer_2" data-name="Layer 2"><g id="Layer_1-2" data-name="Layer 1"><path class="cls-1" d="M215.72,19.75V52.5"/><path class="cls-1" d="M187.22,5.5V19.75a14.25,14.25,0,0,0,28.5,0"/><path class="cls-1" d="M63.47,5.5A14.25,14.25,0,1,0,77.72,19.75V5.5Z"/><line class="cls-1" x1="77.72" y1="5.5" x2="77.72" y2="34.5"/><path class="cls-1" d="M156,5.5a14.25,14.25,0,1,1-14.25,14.25V5.5Z"/><line class="cls-1" x1="141.72" y1="5.5" x2="141.72" y2="34.5"/><path class="cls-1" d="M124.22,8H110A14.25,14.25,0,0,0,95.72,22.25"/><line class="cls-1" x1="95.72" y1="5.5" x2="95.72" y2="34.5"/><line class="cls-1" x1="20" y1="5.5" x2="20" y2="34.5"/><line class="cls-1" x1="5.5" y1="5.5" x2="34.5" y2="5.5"/></g></g></svg>